<svg width="15" height="26" viewBox="0 0 15 26" fill="none" xmlns="http://www.w3.org/2000/svg">
<path d="M15 17.515C15 12.9 11.22 12.374 8.18299 11.952C4.87299 11.492 2.99998 11.092 2.99998 8.242C2.99998 5.85 5.50698 5 7.65399 5C8.72393 4.96544 9.78677 5.18569 10.7549 5.64262C11.723 6.09954 12.5686 6.78004 13.222 7.628L14.778 6.372C14.0782 5.47217 13.2075 4.71952 12.216 4.1573C11.2244 3.59509 10.1314 3.23441 8.99998 3.096V0H6.99998V3.022C3.38498 3.242 0.999985 5.282 0.999985 8.242C0.999985 12.972 4.82998 13.505 7.90698 13.932C11.16 14.385 13 14.774 13 17.515C13 20.547 9.86698 21 7.99998 21C4.56998 21 3.12198 20.036 1.77798 18.372L0.221985 19.628C1.01475 20.6727 2.04009 21.5182 3.21665 22.0975C4.39321 22.6767 5.68859 22.9737 6.99998 22.965V26H8.99998V22.955C12.726 22.651 15 20.628 15 17.515Z" fill="white"/>
</svg>
