<svg width="35" height="46" viewBox="0 0 35 46" fill="none" xmlns="http://www.w3.org/2000/svg">
<path d="M35 36.75L32.5255 34.2755L28 38.801V24.5H24.5V38.801L19.9745 34.2755L17.5 36.75L26.25 45.5L35 36.75Z" fill="#23B123"/>
<path d="M3.5 42V10.5H24.5V19.25H28V3.5C27.9991 2.57203 27.63 1.68233 26.9739 1.02615C26.3177 0.369973 25.428 0.000926584 24.5 0H3.5C2.57203 0.000926584 1.68233 0.369973 1.02615 1.02615C0.369973 1.68233 0.000926584 2.57203 0 3.5V42C0.000926584 42.928 0.369973 43.8177 1.02615 44.4739C1.68233 45.13 2.57203 45.4991 3.5 45.5H14V42H3.5ZM3.5 3.5H24.5V7H3.5V3.5Z" fill="#23B123"/>
</svg>
